# xmcd
#
# Track frame offsets: 
#        150
#        13862
#        25192
#        35120
#        48440
#        58287
#        68272
#        77240
#        87900
#        101030
#        112757
#        124825
#        137205
#        150017
#        164877
#
# Disc length: 2367 seconds
#
# Revision: 1
# Processed by: cddbd v1.5.2PL0 Copyright (c) Steve Scherf et al.
# Submitted via: ExactAudioCopy v1.0b3
#
DISCID=c4093d0f
DTITLE=Spears, Billie Jo - Billie Jo Spears Sings Country
DYEAR=2001
DGENRE=Country
TTITLE0=Mr Walker It's All Over
TTITLE1=Stand By Your Man
TTITLE2=My Arms Are Open Late
TTITLE3=Fever
TTITLE4=Souvenirs and Californian Memories
TTITLE5=I Stayed Long Enough
TTITLE6=Hold Me Tight
TTITLE7=I'm So Lonesome I Could Cry
TTITLE8=It Could Have Been Me
TTITLE9=Ease The Want In Me
TTITLE10=What Have They Done To My Song
TTITLE11=Sunshine
TTITLE12=Dallas
TTITLE13=I'll Never Be Free
TTITLE14=He's On The Run Again
EXTD=
EXTT0=
EXTT1=
EXTT2=
EXTT3=
EXTT4=
EXTT5=
EXTT6=
EXTT7=
EXTT8=
EXTT9=
EXTT10=
EXTT11=
EXTT12=
EXTT13=
EXTT14=
PLAYORDER=
